<svg xmlns="http://www.w3.org/2000/svg" xmlns:xlink="http://www.w3.org/1999/xlink"><symbol viewBox="0 0 512 512" id="arrow-left"><path d="M320 512l96-96-160-160L416 96 320 0 64 256l256 256z"/></symbol><symbol viewBox="0 0 512 512" id="arrow-right"><path d="M192 0L96 96l160 160L96 416l96 96 256-256L192 0z"/></symbol><symbol viewBox="0 0 512 512" id="facebook"><path d="M426.472 0H85.276C38.154 0 0 38.186 0 85.306v341.167c0 47.136 38.186 85.307 85.275 85.307H255.89V287.876h-63.973v-63.973h63.973v-47.98c0-44.167 35.797-79.964 79.964-79.964h79.97v63.97h-79.97c-8.838 0-15.99 7.17-15.99 15.993v47.98h87.96l-15.992 63.973h-71.97V511.78h106.644c47.135 0 85.274-38.172 85.274-85.308V85.306C511.78 38.186 473.575 0 426.504 0h-.032z"/></symbol><symbol viewBox="0 0 512 512" id="feed"><path d="M426.805 0H85.373C38.42 0 0 38.418 0 85.373v341.432c0 46.986 38.418 85.373 85.373 85.373h341.432c46.954 0 85.373-38.387 85.373-85.373V85.373C512.178 38.418 473.758 0 426.805 0zM139.533 415.77c-24.008 0-43.5-19.38-43.5-43.356 0-23.854 19.49-43.424 43.5-43.424 24.07 0 43.546 19.57 43.546 43.424 0 23.975-19.477 43.356-43.547 43.356zm109.29.375c0-40.89-15.91-79.465-44.752-108.256-28.866-28.888-67.225-44.83-107.973-44.83v-62.6c118.854 0 215.638 96.77 215.638 215.685h-62.912zm111.114 0c0-145.58-118.383-264.06-263.777-264.06V89.437c180.062 0 326.58 146.612 326.58 326.707h-62.803z"/></symbol><symbol viewBox="0 0 512 512" id="googleplus"><path d="M.453 434.503c-.142-1.28-.235-2.53-.298-3.81.064 1.28.157 2.562.298 3.81zM117.9 282.36c45.983 1.376 76.806-46.31 68.872-106.52-7.93-60.207-51.667-108.5-97.616-109.872-45.983-1.375-76.82 44.702-68.888 104.908 7.93 60.225 51.65 110.11 97.633 111.483zm393.766-154.45V85.283C511.666 38.378 473.288 0 426.383 0H85.313C39.208 0 1.374 37.098.094 82.908c29.167-25.668 69.624-47.12 111.343-47.12H289.95l-39.955 33.787h-56.603c37.552 14.396 57.538 58.022 57.538 102.788 0 37.597-20.89 69.934-50.4 92.916-28.808 22.452-34.242 31.82-34.242 50.934 0 16.236 30.854 43.968 46.966 55.334 47.172 33.26 62.425 64.11 62.425 115.67 0 8.212-1.03 16.395-3.03 24.45h153.734c46.905 0 85.254-38.35 85.254-85.282V159.918h-95.934v95.93h-31.98v-95.93h-95.93V127.94h95.93V32.008h31.98v95.933h95.934l.028-.03zM92.888 382.694c10.82 0 20.688-.28 30.962-.28-13.555-13.146-24.312-29.292-24.312-49.15 0-11.807 3.778-23.143 9.057-33.228-5.372.374-10.87.5-16.568.5-37.16 0-68.716-11.993-92.026-31.9v134.388c26.698-12.646 58.397-20.3 92.855-20.3l.033-.03zM1.733 443.31c-.546-2.75-1-5.495-1.278-8.307.28 2.81.7 5.557 1.278 8.308zM227.587 476.1c-7.524-29.417-34.226-43.97-71.417-69.763-13.522-4.37-28.416-6.933-44.407-7.12-44.764-.47-86.5 17.49-110.03 44.19 7.948 38.813 42.485 68.23 83.55 68.23h143.133c.89-5.557 1.343-11.304 1.343-17.205 0-6.28-.766-12.368-2.173-18.332z"/></symbol><symbol viewBox="0 0 512 512" id="googleplus-communities"><path d="M426.698 0H85.32C38.178 0 0 38.206 0 85.352v341.345c0 47.163 38.206 85.353 85.32 85.353h341.376c47.13 0 85.322-38.188 85.322-85.353V85.352C512.02 38.206 473.828 0 426.698 0zM150.316 194.087c33.626 0 60.886 27.26 60.886 60.886 0 33.627-27.26 60.887-60.886 60.887-33.627 0-60.886-27.26-60.886-60.887 0-33.626 27.26-60.886 60.886-60.886zm82.536 245.543c-79.83-1.353-143.422-90.653-143.422-90.653 4.06-10.823 42.395-15.784 89.3-12.177 40.47 3.114 55.023 46.906 55.023 46.906s9.022 56.016-.9 55.924zm-39.238-309.845c0-33.626 27.26-60.886 60.886-60.886s60.887 27.26 60.887 60.885c0 33.627-27.26 60.886-60.887 60.886-33.627.002-60.886-27.258-60.886-60.885zm82.535 311.65c-9.924.092-.904-55.924-.904-55.924s14.552-43.792 55.024-46.905c46.904-3.606 85.24 1.353 89.3 12.177 0 0-63.59 89.3-143.42 90.654zm82.534-126.928c-33.628 0-60.887-27.26-60.887-60.886s27.26-60.885 60.887-60.885c33.627 0 60.887 27.26 60.887 60.886 0 33.628-27.26 60.887-60.886 60.887z"/></symbol><symbol viewBox="0 0 512 512" id="pinterest"><path d="M426.698 0H85.32C38.178 0 0 38.206 0 85.352v341.345c0 47.163 38.206 85.353 85.32 85.353h341.376c47.13 0 85.322-38.188 85.322-85.353V85.352C512.02 38.206 473.828 0 426.698 0zM286.654 402.04c-25.956 0-50.348-13.44-58.69-29.378 0 0-12.832 48.88-15.942 60.85-5.796 22.252-21.375 50.1-31.815 67.1l-17.5-6.188c-2.235-20.253-4.25-51.35.89-73.443 4.64-19.972 30.02-127.296 30.02-127.296s-7.642-15.312-7.642-38c0-35.598 20.645-62.194 46.302-62.194 21.862 0 32.394 16.39 32.394 36.064 0 21.955-13.986 54.816-21.22 85.228-6.018 25.47 12.77 46.285 37.927 46.285 45.504 0 80.51-47.974 80.51-117.26 0-61.288-44.07-104.182-106.982-104.182-72.834 0-115.587 54.63-115.587 111.118 0 22.035 8.484 45.6 19.047 58.445 2.08 2.53 2.392 4.78 1.75 7.345-1.953 8.062-6.266 25.438-7.093 29.003-1.126 4.688-3.72 5.688-8.58 3.438-31.972-14.878-51.975-61.633-51.975-99.182 0-80.774 58.694-154.937 169.157-154.937 88.82 0 157.827 63.303 157.827 147.858 0 88.228-55.6 159.267-132.823 159.267l.027.06z"/></symbol></svg>