<?xml version="1.0" encoding="utf-8"?><svg xmlns="http://www.w3.org/2000/svg" xmlns:xlink="http://www.w3.org/1999/xlink"><symbol viewBox="0 0 512 512" id="arrow-left" xmlns="http://www.w3.org/2000/svg"><path d="M320 512l96-96-160-160L416 96 320 0 64 256l256 256z"/></symbol><symbol viewBox="0 0 512 512" id="arrow-right" xmlns="http://www.w3.org/2000/svg"><path d="M192 0L96 96l160 160L96 416l96 96 256-256L192 0z"/></symbol><symbol viewBox="0 0 512 512" fill-rule="evenodd" clip-rule="evenodd" stroke-linejoin="round" stroke-miterlimit="1.414" id="paypal" xmlns="http://www.w3.org/2000/svg"><path d="M167.43 480.867l8.362-53.111-18.626-.432h-88.94l61.809-391.906a5.178 5.178 0 0 1 1.727-3.07 5.047 5.047 0 0 1 3.293-1.215H285.02c49.785 0 84.143 10.36 102.081 30.808 8.41 9.593 13.766 19.617 16.356 30.649 2.717 11.575 2.765 25.404.111 42.271l-.191 1.231V146.9l8.41 4.764c7.082 3.757 12.71 8.058 17.026 12.982 7.195 8.202 11.847 18.626 13.813 30.984 2.03 12.71 1.36 27.835-1.966 44.958-3.837 19.697-10.04 36.851-18.418 50.889-7.706 12.934-17.522 23.661-29.177 31.975-11.128 7.898-24.35 13.893-39.298 17.73-14.485 3.773-31 5.676-49.114 5.676h-11.671c-8.346 0-16.452 3.006-22.815 8.394-6.379 5.5-10.6 13.014-11.895 21.231l-.88 4.78-14.772 93.609-.671 3.437c-.176 1.087-.48 1.63-.927 1.998-.4.336-.976.56-1.535.56H167.43z" fill="#253b80" fill-rule="nonzero"/><path d="M420.03 137.347a261.562 261.562 0 0 1-1.534 8.793c-19.777 101.538-87.437 136.615-173.85 136.615h-43.999c-10.567 0-19.473 7.674-21.12 18.098L157.002 443.72l-6.379 40.497c-1.071 6.843 4.205 13.014 11.111 13.014h78.036c9.241 0 17.091-6.715 18.546-15.828l.768-3.964 14.692-93.24.944-5.117a18.766 18.766 0 0 1 18.545-15.86h11.671c75.606 0 134.793-30.696 152.091-119.524 7.227-37.107 3.486-68.091-15.636-89.882-5.787-6.571-12.966-12.023-21.36-16.468z" fill="#179bd7" fill-rule="nonzero"/><path d="M399.343 129.098a155.99 155.99 0 0 0-9.337-2.399 178.203 178.203 0 0 0-9.897-1.87c-11.862-1.919-24.86-2.83-38.786-2.83H223.782c-2.894 0-5.644.655-8.106 1.839-5.42 2.606-9.449 7.738-10.424 14.02l-25.005 158.375-.72 4.62c1.647-10.424 10.553-18.098 21.12-18.098h43.999c86.413 0 154.073-35.093 173.85-136.615a226.967 226.967 0 0 0 1.535-8.793c-5.004-2.654-10.424-4.924-16.26-6.859-1.439-.48-2.926-.943-4.428-1.39z" fill="#222d65" fill-rule="nonzero"/><path d="M205.252 137.859a18.686 18.686 0 0 1 10.424-14.005 18.716 18.716 0 0 1 8.106-1.839h117.541c13.926 0 26.924.911 38.786 2.83 3.39.543 6.683 1.167 9.897 1.87a155.99 155.99 0 0 1 9.337 2.399c1.502.447 2.99.91 4.444 1.374 5.836 1.935 11.256 4.221 16.26 6.86 5.883-37.524-.048-63.072-20.337-86.206-22.366-25.469-62.735-36.373-114.392-36.373H135.354c-10.552 0-19.553 7.675-21.184 18.115L51.706 428.819c-1.231 7.834 4.812 14.9 12.71 14.9h92.585l23.246-147.486 25.005-158.374z" fill="#253b80" fill-rule="nonzero"/></symbol></svg>