<svg xmlns="http://www.w3.org/2000/svg" width="529" height="337" viewBox="66 61 529 337" enable-background="new 66 61 529 337"><path fill="#564F4E" d="M151.043 232.191c10.651-10.28 21.364-20.989 33.617-29.359 12.28-8.393 26.229-13.992 40.22-18.814 11.095-3.824 21.636-7.421 30.821-15.096 8.902-7.439 15.288-16.739 18.309-27.986.885-3.292-2.782-.664-3.271 1.155-7.519 27.998-35.807 33.325-59.05 42.669-24.301 9.769-42.67 26.062-61.28 44.021-1.365 1.317-1.822 5.78.634 3.41m115.394-77.403c24.068-7.546 46.697-24.694 59.675-46.256 1.217-2.02-.488-2.985-1.696-.979-12.343 20.508-33.783 36.579-56.646 43.747-1.178.368-3.018 4.015-1.333 3.488"/><path fill="#363636" d="M272.412 250.302c3.861-1.989 8.049-4.213 11.099-7.356.652-.672.869-2.928-.315-1.705-1.272 1.312-2.768 2.451-4.354 3.479-2.039 1.321-4.231 2.454-6.306 3.523-.743.382-1.445 2.741-.124 2.059"/><path fill="#564F4E" d="M347.757 197.317c.82-1.191 1.373-2.536 2.218-3.716 1.647-2.302 4.054-3.973 6.44-5.422.707-.428-.918-2.442-1.746-1.939-2.427 1.47-4.722 3.141-6.441 5.421-.877 1.163-1.397 2.526-2.218 3.717-.556.805 1.293 2.598 1.747 1.939m-3.453 5.34c12.896-20.775 28.658-41.721 48.014-56.818.944-.736 1.884-4.416.187-3.091-20.143 15.711-36.48 37.318-49.895 58.93-1.247 2.008.463 2.963 1.694.979m-12.933 21.37c31.474-16.981 66.199-26.096 98.64-40.855.884-.402-.969-2.188-1.771-1.823-30.815 14.021-63.694 22.946-93.889 38.361-1.59.813-1.405 1.249-2.98 2.101-.881.474-.762 2.628 0 2.216m47.172-20.059c24.289-.388 48.594-1.028 72.887-1.087 1.202-.003-.269-2.081-1.092-2.08-24.293.061-48.599.7-72.888 1.088-1.206.02.271 2.093 1.093 2.079m-109.827-51.751c16.361-16.055 33.684-29.472 53.104-41.578 19.436-12.115 39.166-23.757 58.289-36.353.684-.451 1.345-2.866.123-2.062-19.451 12.814-39.522 24.658-59.293 36.979-19.247 11.999-36.751 25.254-52.957 41.155-.671.663-.484 3.054.734 1.859m-118.275 87.929c15.33 2.009 30.643 4.164 45.932 6.446 10.66 1.591 21.314 3.247 31.916 5.205 8.474 1.565 15.932 3.212 24.64 2.4 21.57-2.009 43.571-9.188 63.445-17.589 17.255-7.295 21.58-25.553 32.142-39.453 1.582-2.084-1.217-2.338-2.41-.768-5.299 6.978-8.936 15.398-13.696 22.766-5.254 8.128-10.099 12.125-18.825 15.672-19.781 8.043-41.76 15.046-63.171 16.354-8.044.49-15.793-1.855-23.648-3.264-10.412-1.866-20.878-3.448-31.341-5.003-14.289-2.121-28.602-4.121-42.924-5.998-1.538-.2-3.688 3.02-2.06 3.232"/><path fill="#564F4E" d="M148.023 246.552c.471-.579 4.374-3.626 7.63-3.514 3.257.114 4.901-1.571 9.702-1.088 3.686.368 6.601 1.088 6.601 1.088s1.298-.017 1.689-1.088c.534-1.452-.654-1.987-.675-2.252 0 0-2.582-.724-3.516-1.022-1.499-.482-3.174-1.167-5.81-1.99-2.636-.82-5.444-1.68-7.641-2.301s-3.778-1.008-3.958-.888c-.327.218-1.496 4.215-1.932 6.201-.432 1.986-2.09 6.854-2.09 6.854z"/><linearGradient id="a" gradientUnits="userSpaceOnUse" x1="-4.725" y1="-226.967" x2="-3.725" y2="-226.967" gradientTransform="matrix(29.631 27.983 -27.983 29.631 -5999.049 6958.873)"><stop offset="0" stop-color="#223216"/><stop offset=".09" stop-color="#37531C"/><stop offset=".2" stop-color="#4C7523"/><stop offset=".48" stop-color="#568526"/><stop offset=".48" stop-color="#568526"/><stop offset="1" stop-color="#223216"/></linearGradient><path fill="url(#a)" d="M135.225 247.059c1.175 1.241.332-3.552-.042-5.656-.673-3.786 2.278-1.959 8.021.713 1.421.656 2.461 6.81 4.497 5.652 1.662-.943 2.278-4.949 3.607-8.601 1.527-4.192 3.906-8.353 5.827-11.519 6.322-10.426 14.067-19.263 21.752-27.623 5.582-6.074 9.96-13.312 14.657-20.25 1.671-2.47 3.381-4.899 5.198-7.224 11.792-15.089 23.514-30.119 35.71-44.886 8.671-10.497 17.524-20.805 26.695-30.783 28.326-30.82 86.021-96.882 86.021-96.882h-36.785s-47.544 43.995-75.43 74.335c-9.162 9.972-18.093 20.105-26.984 30.265-12.529 14.312-24.987 28.674-37.928 42.688-1.973 2.135-4.041 4.198-6.157 6.228-6.032 5.787-12.447 11.299-18.051 17.397-7.685 8.36-13.91 18.006-23.223 25.666-2.827 2.326-5.513 4.539-8.513 7.229-2.612 2.342-2.244 3.187-5.764 6.516-1.647 1.556-2.805-7.881-6.354-3.616-3.126 3.758-.356 6.317-3.549 10.411-1.306 1.673-2.562.83-4.194 1.494-1.938.787 22.821 9.263 40.989 28.446z"/><linearGradient id="b" gradientUnits="userSpaceOnUse" x1="-4.725" y1="-220.449" x2="-3.725" y2="-220.449" gradientTransform="matrix(29.631 27.983 -27.983 29.631 -5997.893 6959.185)"><stop offset="0" stop-color="#223216"/><stop offset=".1" stop-color="#37531C"/><stop offset=".21" stop-color="#4C7523"/><stop offset=".5" stop-color="#568526"/><stop offset=".5" stop-color="#568526"/><stop offset="1" stop-color="#223216"/></linearGradient><path fill="url(#b)" d="M118.406 258.251c-6.893-3.592-13.894-8.911-18.032-11.901-12.421-8.973-14.016-12.692-15.54-10.901-1.435 1.683-27.863 26.075-30.908 29.288-18.938 19.965-52.179 50.348-52.179 50.348v71.441s56.205-63.139 84.53-93.959c4.793-5.215 25.43-25.775 26.355-26.661 2.416-2.312 6.44-7.308 5.774-7.655z"/><linearGradient id="c" gradientUnits="userSpaceOnUse" x1="-9.744" y1="-214.117" x2="-8.744" y2="-214.117" gradientTransform="matrix(3.222 15.603 -15.603 3.222 -2805.033 989.516)"><stop offset="0" stop-color="#5F952F"/><stop offset="1" stop-color="#98CF67"/></linearGradient><path fill="url(#c)" d="M418.065 187.864c3.135-.684 28.116-11.961 40.664-16.53 2.148-.781 7.323-1.599 10.334-2.194 5.042-.996 6.365-1.338 9.465-2.195 19.99-5.531 41.123-6.82 61.112-12.351 9.998-2.767 31.61-13.171 35.252-15.048 11.343-5.848 20.087-5.798 21.345-6.368.108-.368.211-.348.173-.729l-.086-.585c-.04-.194-.265-.338-.448-.44-.713.267-10.517-1.486-23.348.588-12.839 2.075-27.67 6.218-37.772 8.575-21.531 5.023-35.893 7.961-59.48 17.409-2.987 1.197-5.175 2.359-9.215 5.226-2.512 1.782-6.367 4.763-8.457 5.677-12.211 5.332-37.499 15.161-40.632 15.844l.365 1.04.363 1.042.365 1.039z"/><linearGradient id="d" gradientUnits="userSpaceOnUse" x1="-7.225" y1="-209.34" x2="-6.225" y2="-209.34" gradientTransform="matrix(-2.674 12.802 -12.802 -2.674 -2221.186 -290.602)"><stop offset="0" stop-color="#477813"/><stop offset="1" stop-color="#87DD2B"/></linearGradient><path fill="url(#d)" d="M419.597 187.408c2.172-.984 17.568-6.652 29.846-5.242 9.515 1.092 19.152 5.425 28.73 5.425s18.755-.526 28.323-.154c10.506.409 22.004.965 28.535 1.595.361-.031.62-.286.62-.471v-.548c0-.185-.294-.44-.644-.631-8.223-1.479-16.412-5.628-28.513-8.428-9.329-2.16-18.745-4.114-28.323-4.114s-19.156-.126-28.73-.288c-13.092-.222-30.811 8.956-32.984 9.94l.808 1.02 1.933 1.529.399.367z"/><linearGradient id="e" gradientUnits="userSpaceOnUse" x1="-8.057" y1="-216.538" x2="-7.057" y2="-216.538" gradientTransform="matrix(3.515 18.627 -18.627 3.515 -3579.95 1101.976)"><stop offset="0" stop-color="#588E28"/><stop offset="1" stop-color="#92D15A"/></linearGradient><path fill="url(#e)" d="M378.062 207.044c13.364-.952 21.933.354 33.965.049 10.827-.274 21.027-2.487 31.65-7.534 6.168-2.931 14.815-6.929 31.55-12.146l-.082-.308-.083-.308-.083-.308c-.707.155-27.336.349-34.114 1.532-10.669 1.864-21.289 4.072-31.812 6.637-10.522 2.565-29.39 9.856-31.863 10.222l.291.721.289.724.292.719z"/><linearGradient id="f" gradientUnits="userSpaceOnUse" x1="-9.152" y1="-218.107" x2="-8.152" y2="-218.107" gradientTransform="matrix(7.747 17.66 -17.66 7.747 -3385.079 2030.915)"><stop offset="0" stop-color="#57812A"/><stop offset="1" stop-color="#93C959"/></linearGradient><path fill="url(#f)" d="M331.354 224.475c1.598-.8 16.547-6.396 18.884-7.785 1.249-.738 7.04-3.975 14.157-6.072 6.205-1.83 13.809-2.387 18.517-4.659 11.02-5.322 20.533-9.514 30.364-14.924 5.482-3.017 10.753-6.963 15.277-11.475 3.59-3.582 5.735-6.446 10.736-10.195 3.134-2.347 7.279-5.937 11.878-8.733 6.838-4.162 17.22-10.312 17.708-10.586l-.224-.411-.223-.411-.222-.411c-.489.272-10.223 3.683-20.011 6.864-5.244 1.704-11.279 3.236-14.185 4.428-4.593 1.885-8.971 3.986-13.277 6.211-5.426 2.805-10.734 5.807-16.218 8.822-9.831 5.411-19.664 10.8-28.949 17.102-4.421 3-10.104 7.329-15.147 11.239-5.788 4.486-10.74 8.422-11.989 9.162-1.461.864-8.352 4.223-13.285 6.729-2.96 1.502-4.371 2.771-5.162 3.338-.256.727-1.05 1.275-.348 2.143.79.969 1.463-.249 1.719-.376z"/><linearGradient id="g" gradientUnits="userSpaceOnUse" x1="-1.655" y1="-214.273" x2="-.656" y2="-214.273" gradientTransform="matrix(-11.135 20.314 -20.314 -11.135 -3967.538 -2123.831)"><stop offset="0" stop-color="#355B18"/><stop offset="1" stop-color="#71C233"/></linearGradient><path fill="url(#g)" d="M331.252 224.529c28.638-10.032 35.66-1.592 41.37 2.173 5.507 3.629 17.379 14.831 24.278 19.651 6.901 4.822 24.223 14.004 27.32 16.228 5.946 4.267 24.686 19.942 25.535 20.458l.787-.089.396-.479.006-.871c-.85-.519-19.398-20.817-22.827-24.594-2.562-2.822-15.594-18.182-21.574-24.105-11.467-11.356-15.057-12.229-28.167-16.508-7.275-2.377-29.825.09-47.54 5.517-.399.405-.969.667-1.181 1.364-.419.615-.396.459-.311 1.062.069.459.775 1.769 1.908.193z"/><radialGradient id="h" cx="10.277" cy="-221.573" r="1" gradientTransform="matrix(-15.45 -.815 7.35 -139.302 1974.288 -30617.313)" gradientUnits="userSpaceOnUse"><stop offset="0" stop-color="#5F962B"/><stop offset="1" stop-color="#40701E"/></radialGradient><path fill="url(#h)" d="M169.84 308.211l.518.246.521.245c-.144-.845 8.964-18.056 17.688-30.353 5.271-7.428 9.339-8.59 2.108-35.966-2.111-7.987-12.17-25.342-17.426-31.094-1.112-1.218-1.891-.796-2.372-.796-.316 0-.434.504-.521.796-.087.293-.181.719 0 .96.183.241.827-.062 1.092.488 2.239 4.666 5.035 26.925 5.335 31.52.428 6.58-1.341 21.006-2.522 30.038-1.385 10.573.98 5.844-4.421 33.916z"/><linearGradient id="i" gradientUnits="userSpaceOnUse" x1="11.088" y1="-221.17" x2="12.088" y2="-221.17" gradientTransform="matrix(-14.381 -10.989 10.989 -14.381 2910.609 -2958.189)"><stop offset="0" stop-color="#345010"/><stop offset="1" stop-color="#7CC026"/></linearGradient><path fill="url(#i)" d="M269.517 146.641c-.286.683-.041 1.63.559 1.935 1.923.984 2.254-.137 6.172-3.52 1.517-2.134 15.45-13.688 33.498-32.841 11.327-12.021 15.635-36.145 18.872-42.614 4.038-8.073 15.356-35.457 15.681-35.906-.01-.456-.219-1.956-.426-1.989-.206-.033-1.454 1.693-1.819 2.09-.323.449-11.682 25.774-16.334 33.453-2.342 3.869-15.918 24.971-25.84 37.077-14.395 17.564-10.367 23.742-25.383 37.915-1.467 1.384-4.046 2.159-4.98 4.4z"/><linearGradient id="j" gradientUnits="userSpaceOnUse" x1="12.944" y1="-218.748" x2="13.944" y2="-218.748" gradientTransform="matrix(-13.517 -6.318 6.318 -13.517 1914.986 -2806.818)"><stop offset="0" stop-color="#76973E"/><stop offset="1" stop-color="#ACC97B"/></linearGradient><path fill="url(#j)" d="M324.925 107.706c.586-.641 19.233-19.218 23.834-25.885 7.126-10.335 11.026-21.345 14.051-29.966 2.511-7.166 11.214-30.139 11.466-30.809l-.318-.227-.317-.229c-.252.669-15.147 20.574-19.335 26.909-7.2 10.886-11.136 21.783-14.803 29.005-4.104 8.082-15.021 29.935-15.607 30.576l.516.311.513.315z"/><linearGradient id="k" gradientUnits="userSpaceOnUse" x1="-1.647" y1="-230.65" x2="-.649" y2="-230.65" gradientTransform="matrix(17.831 -13.681 13.681 17.831 3448.77 4413.148)"><stop offset="0" stop-color="#599A29"/><stop offset="1" stop-color="#7FD342"/></linearGradient><path fill="url(#k)" d="M199.658 246.794c13.08 3.966 19.441 3.974 24.943 9.67 10.446 10.813 15.352 26.714 21.762 40.281 3.654 7.735 7.779 14.97 13.503 21.83 4.714 5.649 11.038 14.843 13.127 16.563 9.052 7.465 15.372 11.223 18.228 14.133 3.278 3.334 8.841 8.515 15.071 15.812 12.017 14.071 26.521 31.632 26.798 31.989l.204-.16.202-.158.204-.16c-.278-.357-12.766-19.771-22.509-35.676-5.137-8.383-8.884-16.104-11.04-18.859-2.514-3.209-6.102-10.664-11.317-19.082-3.5-5.648-7.939-11.604-11.937-17.785-4.853-7.504-10.941-13.994-15.572-19.905-9.253-11.812-19.548-21.572-32.092-32.64-5.934-5.236-17.604-9.063-27.498-9.207-.297.422-.016.24-.214.629-.552 1.078-.04.226-.813 1.308-.627.876-1.927 1.3-1.05 1.417z"/><linearGradient id="l" gradientUnits="userSpaceOnUse" x1="-3.446" y1="-230.273" x2="-2.446" y2="-230.273" gradientTransform="matrix(20.529 -9.581 9.581 20.529 2586.762 4875.88)"><stop offset="0" stop-color="#3C7315"/><stop offset="1" stop-color="#74D92D"/></linearGradient><path fill="url(#l)" d="M318.883 232.661c-.238 1.354.437 1.629.879 1.76.441.132 1.591-1.007 1.775-.976 3.104-3.875 6.137-10.336 7.278-17.355 1.537-9.439 3.035-20.085 3.415-26.738.271-4.753.86-12.994-4.492-22.716-1.682-3.055-3.949-6.254-6.997-9.539-2.417-2.603-9.54-4.967-13.046-8.434-2.9-2.871-5.736-5.314-7.788-8.046-3.565-4.745-6.146-8.66-6.381-8.549h-.97c-.541 3.075 1.709 5.018 3.585 10.836 1.079 3.348 1.836 7.538 3.218 11.187 1.667 4.404 3.225 8.172 4.71 11.396 1.183 2.566 2.202 5.099 3.138 7.63 2.984 8.055 5.135 16.097 9.045 25.196 2.632 6.123 4.746 10.589 5.285 16.64.401 4.483-2.091 14.529-2.654 17.708z"/><linearGradient id="m" gradientUnits="userSpaceOnUse" x1="15.747" y1="-227.788" x2="16.748" y2="-227.788" gradientTransform="matrix(-5.643 -10.462 10.462 -5.643 2893.414 -989.699)"><stop offset="0" stop-color="#4E8D1D"/><stop offset="1" stop-color="#87D948"/></linearGradient><path fill="url(#m)" d="M392.456 145.676c7.604-6.169 13.338-7.149 19.77-10.757 6.43-3.606 15.353-8.9 22.195-13.758 3.201-2.275 16.544-6.775 16.609-7 .058-.284.036-.233-.007-.32l-.087-.239c-.043-.088-.074-.112-.293-.22-.679.271-12.56 4.232-17.611 5.362-8.494 1.896-18.397 4.784-24.814 8.417-13.537 7.667-15.477 14.923-17.4 16.954-.396.42-.787 1.369 0 1.799.842.46 1.204-.163 1.638-.238z"/><linearGradient id="n" gradientUnits="userSpaceOnUse" x1="-7.76" y1="-218.224" x2="-6.761" y2="-218.224" gradientTransform="matrix(7.451 20.608 -20.608 7.451 -4043.65 1938.998)"><stop offset="0" stop-color="#3E7816"/><stop offset="1" stop-color="#76D931"/></linearGradient><path fill="url(#n)" d="M356.524 188.116c2.541-.859 22.989-11.301 31.359-15.315 9.807-4.704 23.5-8.24 31.177-16.654 8.821-9.666 11.038-14.979 27.588-23.409.251-.382.101-.547.007-.71l-.259-.399c-.094-.163.038-.226-.593-.356-12.854 6.473-20.563 5.911-35.33 11.733-17.917 7.063-23.623 12.882-29.918 17.808-7.313 5.719-22.267 20.498-26.812 25.419-.735.798-1.169 1.883-1.604 2.835-.422.924-1.261 2.636-1.003 2.877.258.238 4.684-3.592 5.388-3.829z"/><linearGradient id="o" gradientUnits="userSpaceOnUse" x1="20.367" y1="-219.438" x2="21.368" y2="-219.438" gradientTransform="matrix(-8.323 -4.886 4.886 -8.323 1615.556 -1565.273)"><stop offset="0" stop-color="#5D902A"/><stop offset="1" stop-color="#97D05E"/></linearGradient><path fill="url(#o)" d="M344.059 199.212l1.07-.923c.749.153 1.035 1.681 1.193 1.806.159.125 2.075-2.757 2.45-3.426 6.693-11.924 11.693-20.534 14.449-24.025 3.01-3.818 15.266-16.503 19.977-23.888 3.989-6.256 4.938-16.793 11.72-29.391.142-.359-.143-.628-.318-.736l-.502-.22c-.177-.108-.629-.117-.924.05-1.795 3.086-13.398 17.303-18.503 24.422-5.104 7.121-12.546 18.366-15.979 26.324-2.018 4.679-4.02 10.104-12.676 26.132-.576 1.069-1.319 2.708-1.957 3.875z"/><linearGradient id="p" gradientUnits="userSpaceOnUse" x1="-16.888" y1="-203.86" x2="-15.888" y2="-203.86" gradientTransform="matrix(0 7.621 -7.621 0 -1064.273 329.373)"><stop offset="0" stop-color="#68A830"/><stop offset="1" stop-color="#9FD670"/></linearGradient><path fill="url(#p)" d="M445.42 202.902l30.45 3.345c9.263 0 18.567-1.763 27.791-.894 10.409.98 29.024 5.166 30.485 5.254.308.004.366-.07.419-.14l.144-.2c.048-.066-.004-.173-.127-.262-1.535-.229-20.632-7.295-30.921-8.27-9.224-.873-18.528-2.1-27.791-2.1l-30.425 1.201c-.822.17-1.487.747-1.487 1.079 0 .983.611.927 1.462.987z"/><linearGradient id="q" gradientUnits="userSpaceOnUse" x1="-6.766" y1="-223.652" x2="-5.766" y2="-223.652" gradientTransform="matrix(24.926 12.416 -12.416 24.926 -2290.837 5931.928)"><stop offset="0" stop-color="#66923A"/><stop offset="1" stop-color="#9EC874"/></linearGradient><path fill="url(#q)" d="M325.371 230.625c.471-.131.508-.411 1.05-.718 9.89-5.609 10.905 9.915 7.289 16.692-4.079 7.64-5.357 13.231-9.725 20.201-4.367 6.969-8.62 12.782-14.649 23.355-1.16 2.033-14.053 25.262-14.262 25.551l.29.141.308.159.323.181c.21-.289 10.645-14.785 18.962-22.22 9.049-8.067 18.623-10.211 27.304-16.823 8.915-6.793 8.33-16.242 3.774-31.744-3.026-10.295-7.892-20.116-19.298-18.098-.444.079-.606.258-1.366.611-.423.197-1.14.839-.996 1.689.143.854.276 1.226.996 1.023z"/><radialGradient id="r" cx="-8.645" cy="-215.416" r=".999" gradientTransform="matrix(-2.72 8.181 -24.767 -8.235 -5079.038 -1435.302)" gradientUnits="userSpaceOnUse"><stop offset="0" stop-color="#5E9330"/><stop offset="1" stop-color="#97CE67"/></radialGradient><path fill="url(#r)" d="M237.199 253.393c1.488.254 3.018.537 4.675.619 8.552.422 14.982 8.077 17.712 9.784 4.068 2.546 14.312 9.345 20.784 10.62 6.471 1.273 17.028-1.268 24.638-1.241l.181-.628-.21-.627c-7.607-.025-14.854-4.602-22.032-6.271-6.421-1.496-17.871-5.197-21.306-6.83-2.907-1.385-10.118-4.411-18.844-7.502-1.909-.678-3.988-.953-5.598-1.278-1.753-.033-2.198.746-2.248 1.278-.107 1.146 1.721 1.985 2.248 2.076z"/><path fill="#689D34" d="M279.7 244.145c-.385.582-.183.951 0 1.164.18.213 1.342-.188 1.903-.564 1.022-.688 14.646-14.682 16.839-17.693 5.05-6.938 7.208-7.586 7.741-20.975.224-5.555-2.146-8.927-1.668-21.912-.159-.213-.604-.256-.903-.188-.303.068-.786.261-.906.595-1.128 12.213-4.59 17.226-5.775 20.615-1.7 4.863-1.808 16.219-2.276 19.916-.467 3.695-14.457 18.288-14.955 19.042z"/><linearGradient id="s" gradientUnits="userSpaceOnUse" x1=".584" y1="-234.754" x2="1.584" y2="-234.754" gradientTransform="matrix(9.98 -12.419 12.419 9.98 3038.356 2504.86)"><stop offset="0" stop-color="#578E25"/><stop offset="1" stop-color="#91D355"/></linearGradient><path fill="url(#s)" d="M77.754 98.931c13.065 7.681 22.202 21.081 26.028 25.506 4.013 4.64 11.351 17.52 24.306 30.189 6.726 6.578 28.059 16.319 33.915 19.927 5.856 3.608 25.942 15.43 23.827 24.499-.297 1.269 1.059 1.269 1.494 1.134 1.495-.066 1.828-1.256 1.9-2.099.342-.347.004-.695 0-1.33-.046-6.491-16.925-26.521-22.476-30.354-5.661-3.909-20.439-17.251-27.677-23.262-7.237-6.009-23.832-20.687-28.31-24.042-4.475-3.356-13.754-11.739-32.355-21.021l-.328.426-.324.427z"/><radialGradient id="t" cx="-.365" cy="-208.619" r="1" gradientTransform="matrix(-41.03 77.298 -12.363 -6.562 -2387.23 -1143.766)" gradientUnits="userSpaceOnUse"><stop offset="0" stop-color="#447E1C"/><stop offset="1" stop-color="#7CD440"/></radialGradient><path fill="url(#t)" d="M167.953 275.949c-.154.595-.031.711.148.869l.541.479c.182.161.359.204.934.089.381-.546 11.738-9.75 16.621-14.01 2.707-2.363 9.567-10.354 13.046-14.945 4.408-5.816 6.653-10.52 9.457-16.164 2.801-5.646 4.562-18.217 4.807-20.632.466-4.647 1.164-28.921-12.997-21.728-.663.337-2.248 1.307-1.267 2.818.925 1.424 1.789.664 2.167.6 9.867-1.695.404 10.91-3.854 17.178-1.364 2.008-4.167 6.256-6.97 11.9s-5.841 12.128-8.396 17.289c-2.557 5.162-5.162 14.457-6.786 17.66-3.136 6.185-7.071 18.054-7.451 18.597z"/><radialGradient id="u" cx="-1.393" cy="-216.852" r="1" gradientTransform="matrix(-14.3 55.969 -30.776 -7.863 -6429.652 -1438.004)" gradientUnits="userSpaceOnUse"><stop offset="0" stop-color="#253212"/><stop offset=".16" stop-color="#36441E"/><stop offset=".34" stop-color="#64773E"/><stop offset=".34" stop-color="#64773E"/><stop offset="1" stop-color="#70794E"/></radialGradient><path fill="url(#u)" d="M247.992 244.48c.104.394.406.492.673.554.265.062.412.186.919-.187.289-.32 11.158-23.589 12.494-26.324 2.783-5.709 12.393-16.057 13.583-28.042.598-6.022-2.524-18.831-8.113-24.658-2.88-3.003-6.296-4.812-10.314-2.221l-1.42 1.647c-.323.407.283.765.626 1.335.222.367-1.219 2.241-1.629 4.869-.798 5.098-2.232 13.167-2.184 19.218.075 9.169 2.868 23.156 2.416 26.167-1.02 6.817-5.97 26.374-7.051 27.642z"/><linearGradient id="v" gradientUnits="userSpaceOnUse" x1="14.862" y1="-242.25" x2="15.862" y2="-242.25" gradientTransform="matrix(.418 -8.279 8.279 .418 2227.737 391.569)"><stop offset="0" stop-color="#56563C"/><stop offset="1" stop-color="#9C9C72"/></linearGradient><path fill="url(#v)" d="M203.822 157.646c-1.55-.23 20.191 4.417 24.436 6.795 7.002 3.925 6.253 5.416 23.236 4.623.888-.042 2.423 1.972 2.897-.653.081-.446.122-1.168-.851-1.718-9.507-5.369-14.756-7-23.666-7.769-4.847-.416-27.111-3.981-25.562-3.749-1.067.132-1.414.634-1.5 1.043-.084.407.187 1.109 1.01 1.428z"/><linearGradient id="w" gradientUnits="userSpaceOnUse" x1="12.658" y1="-218.558" x2="13.658" y2="-218.558" gradientTransform="matrix(-13.916 -5.624 5.624 -13.916 1703.65 -2869.964)"><stop offset="0" stop-color="#527C21"/><stop offset="1" stop-color="#90CE48"/></linearGradient><path fill="url(#w)" d="M269.494 146.328c-.19.893-.392 1.743.969 2.508 1.198.677 1.672-.125 2.198-1.165 1.383-2.742 8.182-19.285 22.176-41.038 8.936-13.89 13.967-30.897 16.072-43.783 1.999-12.218 1.05-15.895 1.248-16.409-.122-.44-.376-.576-.583-.556-.208.021-.444.179-.697.657-.2.514.786 2.095-7.381 14.006-5.098 7.435-14.088 26.331-20.637 40.548-10.079 21.886-1.632 22.838-12.396 42.627-.372.681-.802 1.827-.969 2.605z"/><linearGradient id="x" gradientUnits="userSpaceOnUse" x1="5.454" y1="-229.999" x2="6.454" y2="-229.999" gradientTransform="matrix(1.265 -22.782 22.782 1.265 5442.317 541.096)"><stop offset="0" stop-color="#274813"/><stop offset="1" stop-color="#61B32F"/></linearGradient><path fill="url(#x)" d="M142.311 125.967c1.145-.178 31.132-2.949 46.718-2.924 17.973.029 36.415 3.95 46.437 3.95s34.498-.568 35.299 14.996c.045.878-1.876 4.919-1.305 5.884 0 0 .307.836.888 1.107 3.409 1.597 5.338-7.955 5.784-9.015 1.329-3.146.349-7.29 0-9.976-2.168-16.717-32.754-24.625-40.985-25.148-21.3-1.354-27.697-1.114-45.962 2.841-15.752 3.411-46.129 16.552-47.271 16.73-.562.276-.46.702-.393.961.063.26.115.565.79.594z"/><linearGradient id="y" gradientUnits="userSpaceOnUse" x1="-5.069" y1="-216.374" x2="-4.069" y2="-216.374" gradientTransform="matrix(-1.154 23.439 -23.439 -1.154 -4669.385 -38.289)"><stop offset="0" stop-color="#4A651E"/><stop offset="1" stop-color="#91C53D"/></linearGradient><path fill="url(#y)" d="M326.047 108.548c1.281-.86 36.258.526 53.973 5.422 28.881 7.981 36.694.449 54.896-2.085 20.289-2.823 17.662-5.688 53.87.609l.311-.808.311-.808c-16.301-4.443-32.53-9.454-54.489-15.144-17.791-4.609-36.582-3.896-54.897-5.426-21.244-1.775-53.586 14.587-54.866 15.446l.446 1.396.445 1.398z"/><linearGradient id="z" gradientUnits="userSpaceOnUse" x1="16.637" y1="-231.833" x2="17.637" y2="-231.833" gradientTransform="matrix(-3.369 -9.833 9.833 -3.369 2667.507 -490.274)"><stop offset="0" stop-color="#568F22"/><stop offset="1" stop-color="#90D651"/></linearGradient><path fill="url(#z)" d="M303.245 134.577c.221-.041.615-.387 1.353-1.055 3.298-.722 12.212-2.871 18.133-4.027 5.235-1.025 12.848-6.752 17.416-8.089 7.568-2.222 11.562-3.144 19.644-5.336.508-.076.398-.254.401-.38.004-.127.024-.349-.382-.382-13.703 1.535-17.957 3.141-21.065 3.493-7.721.879-11.753 1.925-17.402 3.874-3.613 1.246-9.968 6.7-16.139 8.979-.771.284-1.969.57-2.729.741-.427.303-1.155.832-.58 1.602.336 1.087.795.895 1.35.58z"/><linearGradient id="A" gradientUnits="userSpaceOnUse" x1="16.147" y1="-226.351" x2="17.146" y2="-226.351" gradientTransform="matrix(-6.886 -9.854 9.854 -6.886 2734.309 -1318.673)"><stop offset="0" stop-color="#69A437"/><stop offset="1" stop-color="#A0D177"/></linearGradient><path fill="url(#A)" d="M355.309 90.034c17.614-8.345 19.122-6.857 21.772-7.849 5.069-1.889 18.38-.275 24.756-4.724 3.968-2.768 5.842-9.283 20.711-17.812l-.104-.265-.103-.264c-.469.116-18.21 4.284-26.343 8.947-6.742 3.87-14.444 7.322-20.338 9.493-2.656.979-14.833 7.417-21.18 11.251-.488.295-.388.997-.287 1.222.154.342 1.116.001 1.116.001z"/><linearGradient id="B" gradientUnits="userSpaceOnUse" x1="13.322" y1="-223.447" x2="14.322" y2="-223.447" gradientTransform="matrix(-10.843 -10.421 10.421 -10.843 2849.093 -2208.977)"><stop offset="0" stop-color="#3F4C17"/><stop offset="1" stop-color="#94B236"/></linearGradient><path fill="url(#B)" d="M306.248 120.943c1.468-.646 27.035-14.569 35.987-22.985 2.739-2.307 5.487-3.558 11.478-7.46 8.789-5.73 19.147-13.65 22.428-16.825 7.924-7.677 20.971-28.619 24.499-32.523 5.175-5.726 26.603-30.802 27.134-31.165l-.432-.222-.434-.221c-.53.363-25.607 23.008-31.208 27.514-4.1 3.299-23.157 23.938-28.505 29.439-5.35 5.502-21.325 23.415-28.498 29.276-4.493 3.671-32.45 23.197-33.693 24.019-.565.714-.515 1.098-.301 1.303.216.202.899.134 1.545-.15z"/><linearGradient id="C" gradientUnits="userSpaceOnUse" x1="22.111" y1="-223.977" x2="23.111" y2="-223.977" gradientTransform="matrix(-6.043 -6.63 6.63 -6.043 2034.041 -1152.53)"><stop offset="0" stop-color="#78B333"/><stop offset="1" stop-color="#ACD978"/></linearGradient><path fill="url(#C)" d="M378.335 75.397c.734-.788 17.889-9.342 24.935-12.61 8.92-4.137 19.095-10.548 24.694-14.09 4.075-2.578 21.716-13.042 24.073-15.562l.165-.602-.617-.602c-5.669 2.886-16.121 8.183-25.31 13.156-4.243 2.295-18.128 6.594-25.802 12.395-6.196 4.684-21.931 15.6-22.667 16.388-.188.201-.465.567-.191 1.067.292.541.466.443.72.46z"/><linearGradient id="D" gradientUnits="userSpaceOnUse" x1="-4.725" y1="-222.78" x2="-3.725" y2="-222.78" gradientTransform="matrix(29.631 27.983 -27.983 29.631 -5999.518 6959.373)"><stop offset="0" stop-color="#223216"/><stop offset=".1" stop-color="#37531C"/><stop offset=".21" stop-color="#4C7523"/><stop offset=".5" stop-color="#568526"/><stop offset=".5" stop-color="#568526"/><stop offset="1" stop-color="#223216"/></linearGradient><path fill="url(#D)" d="M94.258 218.574c-1.94.787-4.617 3.713-6.434 5.908-1.323 1.604-1.34 9.074-2.753 10.731-1.434 1.683 30.755 26.306 33.093 24.149 1.402-1.293 3.672-3.385 5.015-4.586 2.979-1.115 4.811-1.75 6.831-2.558 2.806-1.12 5.04-2.925 5.59-4.878 2.843-2.881-37.329-30.669-41.342-28.766z"/><radialGradient id="E" cx="-1.088" cy="-218.593" r="1" gradientTransform="matrix(-9.684 13.93 -42.09 -29.258 -9096.693 -6149.279)" gradientUnits="userSpaceOnUse"><stop offset="0" stop-color="#1A3C0D"/><stop offset=".07" stop-color="#17390C"/><stop offset=".17" stop-color="#15370C"/><stop offset=".5" stop-color="#14360C"/><stop offset=".5" stop-color="#14360C"/><stop offset="1" stop-color="#124309" stop-opacity="0"/></radialGradient><path fill="url(#E)" d="M91.674 220.348c-2.069 2.143-4.133 3.903-4.373 6.19-.295 2.808-.083 5.719 5.393 11.483 3.369 3.547 15.819 11.863 22.75 13.287 7.61 1.564 10.325 2.182 14.001 1.066 2.598-.787 3.312-1.47 5.214-3.303.44-.424.857-1.27.74-1.742-.115-.475-1.364-1.173-1.866-1.852-2.002-2.705-6.301-6.396-11.243-10.082-2.017-1.504-3.411-2.668-5.251-3.78-3.612-2.187-5.863-3.573-8.347-5.079-2.442-1.482-4.386-2.273-6.314-3.352-5.15-2.87-7.593-6.057-10.704-2.836z"/><radialGradient id="F" cx="1.567" cy="-228.284" r="1" gradientTransform="matrix(6.346 -8.6 27.284 20.13 6335.857 4841.064)" gradientUnits="userSpaceOnUse"><stop offset="0" stop-color="#113808"/><stop offset=".5" stop-color="#114205" stop-opacity=".612"/><stop offset="1" stop-color="#568525" stop-opacity="0"/></radialGradient><path fill="url(#F)" d="M100.992 220.197s-.658 1.549 1.381 2.857c3.688 2.364 7.97 6.817 13.876 11.104 2.04 1.481 5.527 3.498 9.462 5.463 5.711 2.853 8.765 6.985 9.981 7.647.338.183-.07-3.662-.498-6.269-.143-.869-.159-.949 0-1.38.233-.635 1.677-.419 1.404-2.423-.534-3.927-2.054-4.868-4.117-8.044-2.541-3.907-5.505-4.017-8.848-7.406-4.824-4.896-12.398-3.874-16.116-3.153-3.027.589-5.572 1.061-6.525 1.604z"/><radialGradient id="G" cx="3.228" cy="-227.669" r="1" gradientTransform="matrix(2.849 -3.841 30.423 22.567 7030.146 5381.419)" gradientUnits="userSpaceOnUse"><stop offset="0" stop-color="#15370C"/><stop offset="1" stop-color="#14360C" stop-opacity=".071"/></radialGradient><path fill="url(#G)" d="M104.939 221.005l-5.311-1.241s-4.227-1.748-3.292 1.241c.935 2.988.41 4.57 3.292 5.965 2.884 1.396 4.771 2.884 7.348 3.938 2.575 1.057 3.743 2.074 5.827 3.779 2.082 1.707 2.329 2.639 6.64 3.662 4.312 1.021 6.696 4.779 8.716 3.193 2.019-1.586 6.175-1.586 3.039-4.873-3.134-3.287-5.18-4.423-9.086-5.763-3.906-1.339-3.812-1.392-6.229-3.938-2.419-2.548-1.633-2.701-4.744-3.385-3.111-.683-6.2-2.578-6.2-2.578z"/><radialGradient id="H" cx="3.372" cy="-227.902" r="1" gradientTransform="matrix(4.409 -6.705 30.135 19.814 6952.09 4785.215)" gradientUnits="userSpaceOnUse"><stop offset="0" stop-color="#194D09"/><stop offset=".51" stop-color="#20520D" stop-opacity=".773"/><stop offset="1" stop-color="#356219" stop-opacity=".031"/><stop offset="1" stop-color="#356219" stop-opacity=".031"/></radialGradient><path fill="url(#H)" d="M86.351 230.771s-.154 1.312-.479 2.869c-.209 1.004-1.163 1.871-1.955 2.771-.794.898-2.529 2.395-3.286 3.449-1.565 2.183-.701 4.88 1.384 7.637 3.22 4.257 6.287 6.439 13.182 9.65 3.334 1.554 7.161 1.808 13.03 5.358 1.422.86 3.232 2.724 5.128 2.229 1.14-.297 2.514-2.41 3.272-3.385 1.685-2.16 3.173-3.267 4.017-4.203.776-.859 2.354-2.429 1.775-3.521-.6-1.138-2.279-2.958-4.173-3.964-1.137-.604-6.359-4.23-7.314-4.872-4.076-2.736-17.789-15.303-24.581-14.018z"/><radialGradient id="I" cx="7.592" cy="-224.207" r="1" gradientTransform="matrix(-18.266 -19.216 8.002 -7.607 2084.806 -1321.278)" gradientUnits="userSpaceOnUse"><stop offset="0" stop-color="#062404"/><stop offset=".32" stop-color="#072A04" stop-opacity=".882"/><stop offset=".61" stop-color="#0C3F06" stop-opacity=".471"/><stop offset=".61" stop-color="#0C3F06" stop-opacity=".471"/><stop offset=".8" stop-color="#174A0B" stop-opacity=".357"/><stop offset="1" stop-color="#376E19" stop-opacity="0"/><stop offset="1" stop-color="#376E19" stop-opacity="0"/></radialGradient><path fill="url(#I)" d="M153.36 219.782s-12.847-7.386-17.319-5.509c-3.652 1.533-6.896 5.791-6.486 9.646.422 3.986 2.505 12.763 9.021 14.28 2.326.543 4.828 1.935 5.583 4.126 1.78 5.166 3.224 8.069 5.689 1.623 1.647-4.308 2.182-6.595 3.513-9.251 1.778-3.549 2.26-4.607 2.935-6.191 2.188-5.14-1.86-7.045-2.936-8.724z"/><radialGradient id="J" cx="-17.48" cy="-221.226" r="1" gradientTransform="matrix(7.151 8.518 -19.845 16.661 -4159.627 4045.356)" gradientUnits="userSpaceOnUse"><stop offset="0" stop-color="#040304"/><stop offset=".55" stop-color="#12190A" stop-opacity=".808"/><stop offset="1" stop-color="#476D21" stop-opacity=".078"/><stop offset="1" stop-color="#476D21" stop-opacity=".078"/></radialGradient><path fill="url(#J)" d="M119.232 199.956c1.61-.743 3.743-.804 4.349 3.065.603 3.873.47 3.681-1.762 7.304-1.728 2.803-5.687 7.579-7.14 10.312-1.452 2.734-5.712 2.998-6.93 2.998-1.219 0-4.365.075-6.267-.793-5.081-2.322-5.128-3.717-3.551-4.966 1.378-1.094 2.506-4.337 2.238-7.552-.158-1.889 1.998-4.743 3.332-4.869 2.864-.271 3.245 6.355 4.246 4.869 1.578-2.342 8.847-9.152 11.485-10.368z"/></svg>