<svg xmlns="http://www.w3.org/2000/svg" width="235" height="214" viewBox="0 0 235 214" enable-background="new 0 0 235 214"><path fill="#D76359" d="M77.921 183.072l4.226 5.629 4.226 3.754 1.88-1.406v-12.673l.936-9.858 2.815-5.166 4.693.469 6.104 4.224h10.326l1.409-3.284s1.88-4.696-1.877-5.632c-3.758-.936-6.103-2.345-9.39-2.815-3.285-.473-7.978-1.406-7.978-1.406l-3.289-6.574.473-10.331h-14.554l.471 4.696v6.574l-2.812 3.754-8.451.936-8.923 3.757-5.159 4.226v5.163l9.854 1.878 4.693-5.166 5.164-2.814 5.163 6.571v15.494zm-41.776-4.229h-4.695l-3.755-3.751-.938-7.514 9.389 1.879v9.386zm-14.082 13.145l-5.632-2.817 1.88-6.572 5.631-.939.939 6.575-2.818 3.753zm168.517-170.865v-6.102l5.166.938 1.405 4.693 4.693 3.757.939 5.632-2.346 4.227-5.163-.941-5.165-4.695.471-7.509zm-90.126 186.356l-9.388-2.348-6.57-1.409-5.165-4.223-4.696-5.635-6.1-2.815-1.878-7.51v-6.099l-6.57-1.412-5.634 3.754-7.983-1.879-3.752-5.162-.941-7.038 1.409-9.389 5.632-5.162 7.041-3.757h9.388l.473-3.287 5.163-3.281.938-3.294-10.327-.469-1.88-2.813 2.818-4.225h24.878s11.735.939 13.145.939c1.406 0 3.754-2.35 3.754-2.35l1.412-4.221-2.819-.943h-24.41l-8.918-.466v-5.634l2.813-.468 6.104-.47 10.327.938 12.676-.468 4.226-1.406 1.406-5.638-5.632-.939h-20.184l-10.328.471-1.407-4.696 2.813-3.281h18.779l15.49-.47 8.452 3.751 1.407 12.208 3.286 7.041 5.158 4.226 4.696 4.689-3.284 4.225-5.164-1.874-6.572-2.818-1.409 7.512-5.635 1.409-7.508-.466 1.41 6.101 8.448 1.406 7.982.939 7.035 3.284 2.349 4.224 3.757-.467.469-8.919.94-9.862 4.692-9.855 4.227-14.082 4.692-12.672 6.103-8.922 7.979-7.507 7.044-6.573.934-3.755-3.284-.941h-14.549l-6.104-1.406-5.633-3.289-3.756-5.634.472-15.018-.944-19.715 1.412-9.387 7.041-3.755 4.229 2.346.933 7.511-.469 10.796-.464 26.287 5.16 3.286 5.632-1.878h8.453l6.101.47v-4.223l-.469-32.389v-6.103l4.227-9.859h7.037l2.349 4.225v13.143l-.939 17.371.939 13.144 2.811 4.222h7.987l8.446.47 5.636-2.814 2.344-6.102 2.818-6.105.936-14.082v-8.918l3.287-4.694 6.103-.471.467 17.839.472 20.184-.472 9.389-10.326 3.286-11.729 2.35-16.431-.942 2.345 6.575 8.45 6.1 6.571 5.633 6.098 5.166.474 5.164 4.223 7.043 1.879 8.914 3.284 8.919 2.348 11.263 2.815 2.351 1.884 9.389-.473 14.548c8.446.473 6.102-2.814 6.102-2.814v-6.099l-1.406-9.861v-8.452l.938-4.694-1.409-7.042.939-8.915-4.69-5.632-2.351-3.286v-5.632l3.757-4.226.473-7.981 2.344-3.756.468-32.387s-.468-34.733-.468-36.615c0-1.878-4.223-7.507-4.223-7.507l-2.351-3.289s-3.284-3.286-6.103-4.696c-2.816-1.402-14.082 0-14.082 0l-16.426.471s-4.227 3.287-6.105 2.349c-1.875-.941-2.348-3.757-2.348-3.757l-14.548.47h-26.758c-3.757 0-9.859 3.287-9.859 3.287l-7.159 1.054-9.387-.821-5.397.115-1.527 2.936 2.35 3.755 4.224 3.287 7.508 4.226-.465 6.568-4.693.468v4.694l1.407 3.286 6.569 5.635 4.693 4.223 1.412 6.575-7.982-.471s-5.635-3.754-6.572-5.166c-.939-1.409-3.284-4.223-3.284-4.223l-4.226-6.573h-6.104l-1.877 4.694 4.695 5.635 5.161 4.223 2.813 3.755-2.343 3.287s-4.226-.473-6.103-.473c-1.878 0-4.225-6.1-4.225-6.1s-4.224-6.102-4.693-7.512c-.469-1.409-5.633-2.346-5.633-2.346l-6.572 1.88-.937 4.223 3.755 4.694 1.875 6.102v9.389h6.572l10.796 1.406 15.959-.466 1.881 3.286-2.819 3.284-7.977 1.41-9.857-1.41-1.88 3.287 1.88 5.629v5.166h6.57l12.674.469-.472 6.105h-44.123l-7.043-1.407 1.409-6.106 9.391.939 10.794-.939.938-3.756.94-7.509-9.859.939-13.143-1.88.938-6.571h5.634l6.101-2.345v-4.694s-1.407-3.757-1.407-5.166c0-1.406-5.159-3.286-5.159-3.286l-5.167-7.041.47-5.632.939-6.102-4.227-.941h-9.389l-16.428.47h-14.081l-4.224 3.287 2.347 4.223h6.102l3.286-.938 12.676-.939s15.957.47 17.837.939c1.88.471-1.409 5.632-1.409 5.632l-6.104 1.412-.466 7.509-.471 7.98-.938 6.57-4.226.47-9.389.468h-15.021l-3.284 2.351-1.41 7.039 3.289 2.349h20.651l8.919.933-.469 7.046-6.572.937-.467 5.633-1.41 6.104-1.408 6.102-5.161.938-11.739-.468-7.979 1.404 1.408 11.737 4.227.471 15.488-.471 11.734-.936-.466 8.449h-6.576l-.938 7.509-1.407 5.168-5.632 5.156-8.45 2.817-10.327 4.227-3.757.936-1.406 12.676-3.757 5.163-2.818 10.325-2.348 4.702-.938 10.791 4.694 2.345 6.571-.466 3.289 2.817-2.818 4.69h4.693l3.757-2.345 3.284 2.818 2.348 2.345 7.98-.47 4.225-2.814 6.1.466 1.412 4.224 15.017.945 23.941.936 18.777-.47-1.408-2.817-6.103-2.346zm108.901-14.082l-4.223 5.629-3.754 1.412-6.574-2.818-.467-5.165 4.224-3.754 4.224-1.409 6.57-.936v7.041zm-18.302-49.289l-5.635-6.572 1.878-5.635 3.757.938 2.812 7.515-2.812 3.754zm-29.575 10.328l-7.041 5.162 1.878 4.223 2.815 5.636-4.225 3.284-4.692-3.754-7.041-7.041 1.406-7.51 2.814-3.284 3.287-1.879 4.226-6.101 6.572-.473.473 5.635-.472 6.102zm72.287 38.019v-10.795l.473-7.977-2.817-.473h-2.817l-1.406 5.166.939 9.389-1.412 15.957-3.75 1.409v-8.45l-.946-11.264-4.689-9.389-.472-13.612v-10.328l-1.88-14.085s-5.632-11.733-6.101-13.144c-.467-1.408-2.818-11.733-2.818-11.733l-7.034-10.794-6.577-9.859-9.387-7.509v10.324l-1.875 23.002v45.062l2.346 22.531-3.285 10.332-3.284 4.696-5.635-4.23-1.412-11.264.473-20.187v-14.551l1.409-7.041-.943-20.187.943-15.487.469-22.533-4.695 5.633-10.325 11.268-4.696 11.732-5.629 11.267-4.229 15.496-3.755 10.325v8.913l1.879 9.392-1.408 15.49v15.964h-10.325v-4.23l.936-14.554-.47-12.201-5.162-.469-5.166 6.101-6.102 1.882h-7.507l-7.043.936-.942 4.696-.938 8.447 1.411 6.101 6.571 2.345 7.509 3.288 4.229 1.878h6.1l10.325 1.875 4.227 3.757h6.571l13.615.467h18.305l13.616.472 16.426.473 7.041-2.351 9.386-.936 11.737.466.937-6.571-.941-10.328zm-159.599-176.027l.941 3.287-.941 6.571 3.286 2.345 4.224 1.409 6.577-1.409 7.979-2.345 5.163-2.818 2.346-4.693-2.346-3.287-2.35-4.693-2.349-2.818-3.753-3.754s-21.123-.941-23.469.47l-1.41 2.813 1.878 3.757 4.224 5.165zm-48.817 82.146l13.145-.471 2.345-5.631s-.937-5.162-2.345-5.162c-1.41 0-8.45.939-8.45.939l-6.571 1.406-1.409 4.694-1.409 4.225h4.694zm10.325-40.37s3.289-1.875 6.571-1.407c3.286.47 5.637 1.407 5.637 1.407h1.407l1.877-3.755-.469-5.161-8.452-1.409-11.264.47-8.449-1.41-1.879 10.799 2.818.936 12.203-.47zm-28.632 96.232l2.818-9.389.937-8.918 2.821-13.144-.944-11.264 1.41-12.205-.466-11.266 1.871-7.512s-.936-4.693-1.405-6.572c-.466-1.878-1.41-4.225-1.41-4.225l2.35-8.918-.47-8.45-.936-6.103s0-6.571.466-8.919c.47-2.346 2.812-6.103 2.812-6.103l1.878-4.693 7.515-3.286 9.384-.468h10.328l7.511-.468 8.45.468 2.348-4.225.468-5.632-2.229-3.052s-1.641-2.346-1.759-2.698c-.118-.353-.703-3.169-.703-3.169h-13.618s-12.671.47-16.896.47c-4.225 0-10.798.466-12.204 1.407-1.409.939-4.694 3.757-7.044 4.225-2.346.47-5.158 3.757-6.568 4.695-1.407.936-2.818 4.225-2.818 4.225l-.469 75.104s2.815 3.287 2.815 5.166c0 1.872 1.408 49.284-.469 51.163-1.878 1.878-2.817 23.467-2.817 23.467l4.223-5.628 1.409-6.102 1.411-7.981zm10.799-14.552l5.159.943 6.572-2.352 6.101-.472.471-4.693-1.409-3.754h-8.446l-5.636-.469-2.812 4.696v6.101z"/></svg>